<svg xmlns="http://www.w3.org/2000/svg" xmlns:xlink="http://www.w3.org/1999/xlink" width="500" zoomAndPan="magnify" viewBox="0 0 375 374.999991" height="500" preserveAspectRatio="xMidYMid meet" version="1.0"><defs><clipPath id="307a9fec2a"><path d="M 153 144 L 347.90625 144 L 347.90625 270 L 153 270 Z M 153 144 " clip-rule="nonzero"/></clipPath><clipPath id="c380e7c9b2"><path d="M 208 144 L 347.90625 144 L 347.90625 270 L 208 270 Z M 208 144 " clip-rule="nonzero"/></clipPath><clipPath id="f1f47d624f"><path d="M 216 46.78125 L 227 46.78125 L 227 73 L 216 73 Z M 216 46.78125 " clip-rule="nonzero"/></clipPath><clipPath id="944620f42c"><path d="M 26.90625 144 L 222 144 L 222 270 L 26.90625 270 Z M 26.90625 144 " clip-rule="nonzero"/></clipPath><clipPath id="e1e374f957"><path d="M 126 203 L 322 203 L 322 328.03125 L 126 328.03125 Z M 126 203 " clip-rule="nonzero"/></clipPath><clipPath id="598b330122"><path d="M 181 203 L 322 203 L 322 328.03125 L 181 328.03125 Z M 181 203 " clip-rule="nonzero"/></clipPath><clipPath id="23cf9e8ff1"><path d="M 53 238 L 193 238 L 193 328.03125 L 53 328.03125 Z M 53 238 " clip-rule="nonzero"/></clipPath><clipPath id="ff8e662ffe"><path d="M 92 238 L 193 238 L 193 328.03125 L 92 328.03125 Z M 92 238 " clip-rule="nonzero"/></clipPath></defs><rect x="-37.5" width="450" fill="#ffffff" y="-37.499999" height="449.999989" fill-opacity="1"/><rect x="-37.5" width="450" fill="#ffffff" y="-37.499999" height="449.999989" fill-opacity="1"/><rect x="-37.5" width="450" fill="#ffffff" y="-37.499999" height="449.999989" fill-opacity="1"/><path fill="#f0f5f7" d="M 66.179688 132.855469 C 67.9375 103.785156 92.070312 80.753906 121.585938 80.753906 C 145.386719 80.753906 165.691406 95.738281 173.578125 116.785156 C 194.078125 117.03125 210.621094 133.710938 210.621094 154.265625 C 210.621094 174.976562 193.828125 191.765625 173.117188 191.765625 C 164.449219 191.765625 76.117188 191.765625 67.210938 191.765625 C 50.933594 191.765625 37.738281 178.570312 37.738281 162.296875 C 37.738281 146.367188 50.382812 133.398438 66.179688 132.855469 Z M 66.179688 132.855469 " fill-opacity="1" fill-rule="nonzero"/><path fill="#dde9ed" d="M 210.621094 154.269531 C 210.621094 169.25 201.824219 182.183594 189.121094 188.1875 C 191.410156 183.335938 192.691406 177.914062 192.691406 172.191406 C 192.691406 151.636719 176.152344 134.953125 155.652344 134.707031 C 147.761719 113.65625 127.464844 98.675781 103.660156 98.675781 C 92.925781 98.675781 82.898438 101.722656 74.40625 107 C 84.203125 91.242188 101.667969 80.757812 121.585938 80.757812 C 145.386719 80.757812 165.691406 95.738281 173.574219 116.78125 C 194.078125 117.03125 210.621094 133.714844 210.621094 154.269531 Z M 210.621094 154.269531 " fill-opacity="1" fill-rule="nonzero"/><g clip-path="url(#307a9fec2a)"><path fill="#c4e1e8" d="M 315.902344 202.996094 C 313.921875 170.285156 286.769531 144.367188 253.554688 144.367188 C 226.769531 144.367188 203.925781 161.226562 195.046875 184.910156 C 171.980469 185.1875 153.363281 203.960938 153.363281 227.089844 C 153.363281 250.394531 172.257812 269.285156 195.5625 269.285156 L 314.742188 269.285156 C 333.058594 269.285156 347.90625 254.4375 347.90625 236.125 C 347.90625 218.199219 333.679688 203.605469 315.902344 202.996094 Z M 315.902344 202.996094 " fill-opacity="1" fill-rule="nonzero"/></g><g clip-path="url(#c380e7c9b2)"><path fill="#a4d5dd" d="M 347.90625 236.125 C 347.90625 254.4375 333.058594 269.289062 314.742188 269.289062 L 312.171875 269.289062 C 314.578125 264.695312 315.9375 259.46875 315.9375 253.929688 C 315.9375 236.007812 301.710938 221.410156 283.933594 220.796875 C 281.953125 188.089844 254.796875 162.167969 221.585938 162.167969 C 217.105469 162.167969 212.738281 162.640625 208.53125 163.535156 C 219.890625 151.71875 235.863281 144.367188 253.554688 144.367188 C 286.769531 144.367188 313.921875 170.28125 315.902344 202.996094 C 333.679688 203.605469 347.90625 218.199219 347.90625 236.125 Z M 347.90625 236.125 " fill-opacity="1" fill-rule="nonzero"/></g><path fill="#f6cb43" d="M 295.652344 167.953125 C 295.652344 209.011719 262.367188 242.292969 221.300781 242.292969 C 180.238281 242.292969 146.949219 209.011719 146.949219 167.953125 C 146.949219 126.894531 180.238281 93.609375 221.300781 93.609375 C 262.367188 93.609375 295.652344 126.894531 295.652344 167.953125 Z M 295.652344 167.953125 " fill-opacity="1" fill-rule="nonzero"/><path fill="#fab03c" d="M 221.304688 242.292969 C 180.238281 242.292969 146.953125 209.011719 146.953125 167.949219 C 146.953125 131.941406 172.558594 101.902344 206.5625 95.074219 C 205.601562 99.839844 205.101562 104.761719 205.101562 109.8125 C 205.101562 150.875 238.382812 184.15625 279.449219 184.15625 C 284.5 184.15625 289.425781 183.652344 294.191406 182.691406 C 287.351562 216.691406 257.3125 242.292969 221.304688 242.292969 Z M 221.304688 242.292969 " fill-opacity="1" fill-rule="nonzero"/><path fill="#f8e98e" d="M 337.59375 172.796875 L 321.582031 172.796875 C 318.90625 172.796875 316.738281 170.628906 316.738281 167.953125 C 316.738281 165.277344 318.90625 163.109375 321.582031 163.109375 L 337.59375 163.109375 C 340.273438 163.109375 342.4375 165.277344 342.4375 167.953125 C 342.4375 170.628906 340.273438 172.796875 337.59375 172.796875 Z M 337.59375 172.796875 " fill-opacity="1" fill-rule="nonzero"/><path fill="#f8e98e" d="M 308.148438 122.664062 C 306.476562 122.664062 304.847656 121.792969 303.953125 120.238281 C 302.613281 117.921875 303.40625 114.960938 305.726562 113.625 L 319.59375 105.617188 C 321.910156 104.28125 324.871094 105.070312 326.210938 107.390625 C 327.550781 109.707031 326.753906 112.667969 324.4375 114.003906 L 310.566406 122.011719 C 309.804688 122.453125 308.972656 122.664062 308.148438 122.664062 Z M 308.148438 122.664062 " fill-opacity="1" fill-rule="nonzero"/><path fill="#f8e98e" d="M 271.4375 85.960938 C 270.617188 85.960938 269.785156 85.753906 269.019531 85.3125 C 266.703125 83.972656 265.910156 81.011719 267.246094 78.695312 L 275.253906 64.828125 C 276.59375 62.511719 279.554688 61.71875 281.871094 63.054688 C 284.1875 64.394531 284.984375 67.355469 283.644531 69.671875 L 275.636719 83.539062 C 274.742188 85.09375 273.113281 85.960938 271.4375 85.960938 Z M 271.4375 85.960938 " fill-opacity="1" fill-rule="nonzero"/><g clip-path="url(#f1f47d624f)"><path fill="#f8e98e" d="M 221.300781 72.527344 C 218.625 72.527344 216.457031 70.359375 216.457031 67.683594 L 216.457031 51.671875 C 216.457031 49 218.625 46.828125 221.300781 46.828125 C 223.976562 46.828125 226.144531 49 226.144531 51.671875 L 226.144531 67.683594 C 226.148438 70.359375 223.976562 72.527344 221.300781 72.527344 Z M 221.300781 72.527344 " fill-opacity="1" fill-rule="nonzero"/></g><path fill="#f8e98e" d="M 171.164062 85.960938 C 169.492188 85.960938 167.863281 85.09375 166.96875 83.539062 L 158.960938 69.671875 C 157.621094 67.355469 158.417969 64.394531 160.734375 63.054688 C 163.050781 61.71875 166.011719 62.511719 167.351562 64.828125 L 175.355469 78.695312 C 176.695312 81.011719 175.902344 83.976562 173.582031 85.3125 C 172.820312 85.753906 171.988281 85.960938 171.164062 85.960938 Z M 171.164062 85.960938 " fill-opacity="1" fill-rule="nonzero"/><g clip-path="url(#944620f42c)"><path fill="#c4e1e8" d="M 189.445312 202.996094 C 187.464844 170.285156 160.3125 144.367188 127.097656 144.367188 C 100.3125 144.367188 77.46875 161.226562 68.589844 184.910156 C 45.523438 185.1875 26.90625 203.960938 26.90625 227.089844 C 26.90625 250.394531 45.800781 269.285156 69.105469 269.285156 L 188.289062 269.285156 C 206.605469 269.285156 221.453125 254.4375 221.453125 236.125 C 221.449219 218.199219 207.222656 203.605469 189.445312 202.996094 Z M 189.445312 202.996094 " fill-opacity="1" fill-rule="nonzero"/></g><path fill="#a4d5dd" d="M 221.453125 236.125 C 221.453125 254.4375 206.601562 269.289062 188.285156 269.289062 L 185.714844 269.289062 C 188.121094 264.695312 189.480469 259.46875 189.480469 253.929688 C 189.480469 236.007812 175.257812 221.410156 157.476562 220.796875 C 155.496094 188.089844 128.339844 162.167969 95.128906 162.167969 C 90.648438 162.167969 86.28125 162.640625 82.074219 163.535156 C 93.4375 151.71875 109.40625 144.367188 127.097656 144.367188 C 160.3125 144.367188 187.464844 170.28125 189.449219 202.996094 C 207.226562 203.605469 221.453125 218.199219 221.453125 236.125 Z M 221.453125 236.125 " fill-opacity="1" fill-rule="nonzero"/><g clip-path="url(#e1e374f957)"><path fill="#f0f5f7" d="M 289.328125 261.71875 C 287.351562 229.007812 260.195312 203.089844 226.984375 203.089844 C 200.195312 203.089844 177.351562 219.949219 168.472656 243.632812 C 145.410156 243.910156 126.792969 262.683594 126.792969 285.8125 C 126.792969 309.117188 145.6875 328.007812 168.992188 328.007812 L 288.171875 328.007812 C 306.488281 328.007812 321.335938 313.160156 321.335938 294.851562 C 321.335938 276.921875 307.109375 262.332031 289.328125 261.71875 Z M 289.328125 261.71875 " fill-opacity="1" fill-rule="nonzero"/></g><g clip-path="url(#598b330122)"><path fill="#dde9ed" d="M 321.339844 294.847656 C 321.339844 313.160156 306.488281 328.011719 288.171875 328.011719 L 285.601562 328.011719 C 288.007812 323.417969 289.367188 318.195312 289.367188 312.65625 C 289.367188 294.730469 275.140625 280.136719 257.363281 279.519531 C 255.382812 246.8125 228.226562 220.894531 195.011719 220.894531 C 190.53125 220.894531 186.167969 221.363281 181.957031 222.257812 C 193.324219 210.445312 209.292969 203.089844 226.984375 203.089844 C 260.199219 203.089844 287.351562 229.003906 289.332031 261.722656 C 307.113281 262.328125 321.339844 276.921875 321.339844 294.847656 Z M 321.339844 294.847656 " fill-opacity="1" fill-rule="nonzero"/></g><path fill="#f0f5f7" d="M 272.792969 258.046875 C 270.605469 258.046875 268.621094 256.554688 268.089844 254.335938 C 267.527344 252.003906 266.761719 249.703125 265.808594 247.503906 C 264.746094 245.046875 265.875 242.195312 268.332031 241.132812 C 270.789062 240.070312 273.636719 241.203125 274.703125 243.65625 C 275.875 246.371094 276.816406 249.199219 277.507812 252.070312 C 278.136719 254.671875 276.53125 257.285156 273.929688 257.914062 C 273.550781 258.003906 273.167969 258.046875 272.792969 258.046875 Z M 272.792969 258.046875 " fill-opacity="1" fill-rule="nonzero"/><path fill="#f0f5f7" d="M 260.996094 236.507812 C 259.71875 236.507812 258.449219 236.007812 257.5 235.015625 C 249.433594 226.613281 238.59375 221.984375 226.984375 221.984375 C 224.308594 221.984375 222.140625 219.816406 222.140625 217.140625 C 222.140625 214.46875 224.308594 212.300781 226.984375 212.300781 C 241.257812 212.300781 254.578125 217.984375 264.488281 228.3125 C 266.339844 230.238281 266.277344 233.308594 264.347656 235.160156 C 263.410156 236.058594 262.203125 236.507812 260.996094 236.507812 Z M 260.996094 236.507812 " fill-opacity="1" fill-rule="nonzero"/><g clip-path="url(#23cf9e8ff1)"><path fill="#f0f5f7" d="M 76.359375 280.617188 C 77.773438 257.230469 97.1875 238.703125 120.929688 238.703125 C 140.082031 238.703125 156.414062 250.753906 162.761719 267.6875 C 179.253906 267.886719 192.5625 281.304688 192.5625 297.84375 C 192.5625 314.503906 179.054688 328.007812 162.390625 328.007812 C 155.417969 328.007812 84.355469 328.007812 77.1875 328.007812 C 64.09375 328.007812 53.476562 317.394531 53.476562 304.300781 C 53.476562 291.488281 63.648438 281.054688 76.359375 280.617188 Z M 76.359375 280.617188 " fill-opacity="1" fill-rule="nonzero"/></g><g clip-path="url(#ff8e662ffe)"><path fill="#dde9ed" d="M 192.5625 297.84375 C 192.5625 314.363281 179.277344 327.777344 162.808594 328.003906 C 167.746094 322.628906 170.757812 315.46875 170.757812 307.601562 C 170.757812 291.070312 157.453125 277.648438 140.953125 277.445312 C 134.609375 260.519531 118.277344 248.460938 99.125 248.460938 C 96.863281 248.460938 94.640625 248.632812 92.464844 248.957031 C 100.191406 242.550781 110.113281 238.703125 120.929688 238.703125 C 140.082031 238.703125 156.414062 250.753906 162.757812 267.6875 C 179.253906 267.890625 192.5625 281.304688 192.5625 297.84375 Z M 192.5625 297.84375 " fill-opacity="1" fill-rule="nonzero"/></g></svg>